<svg width="83" height="83" viewBox="0 0 83 83" fill="none" xmlns="http://www.w3.org/2000/svg">
<g clip-path="url(#clip0_68_620)">
<path d="M44.65 25.75H38.35V38.35H25.75V44.65H38.35V57.25H44.65V44.65H57.25V38.35H44.65V25.75ZM41.5 10C24.112 10 10 24.112 10 41.5C10 58.888 24.112 73 41.5 73C58.888 73 73 58.888 73 41.5C73 24.112 58.888 10 41.5 10ZM41.5 66.7C27.6085 66.7 16.3 55.3915 16.3 41.5C16.3 27.6085 27.6085 16.3 41.5 16.3C55.3915 16.3 66.7 27.6085 66.7 41.5C66.7 55.3915 55.3915 66.7 41.5 66.7Z" fill="white"/>
</g>
<defs>
<clipPath id="clip0_68_620">
<rect width="83" height="83" fill="white"/>
</clipPath>
</defs>
</svg>
